PathFileType	4	(X/Y/Z)	C:\Users\Graham\Documents\MATLAB\MOtoNMS_v2_2\MyData\ElaboratedData\S4\17-05-18\staticElaborations\Static1\Static1\\Static1.trc
DataRate	CameraRate	NumFrames	NumMarkers	Units	OrigDataRate	DataStartFrame
100	100	7	38	mm	100	2
Frame#	Time	V_Sacral			R_ASIS			L_ASIS			R_Knee_Lat			R_Knee_Med			R_Thigh_Upper			R_Thigh_Front			R_Thigh_Rear			L_Knee_Lat			L_Knee_Med			L_Thigh_Upper			L_Thigh_Front			L_Thigh_Rear			R_Ankle_Lat			R_Ankle_Med			R_Shank_Upper			R_Shank_Front			R_Shank_Rear			L_Ankle_Lat			L_Ankle_Med			L_Shank_Upper			L_Shank_Front			L_Shank_Rear			R_Heel			R_MTP1			R_MTP5			L_Heel			L_MTP1			L_MTP5			Clavicle			R_Acromium			L_Acromium			LAJC			RAJC			LHJC			RHJC			LKJC			RKJC		
		X1	Y1	Z1	X2	Y2	Z2	X3	Y3	Z3	X4	Y4	Z4	X5	Y5	Z5	X6	Y6	Z6	X7	Y7	Z7	X8	Y8	Z8	X9	Y9	Z9	X10	Y10	Z10	X11	Y11	Z11	X12	Y12	Z12	X13	Y13	Z13	X14	Y14	Z14	X15	Y15	Z15	X16	Y16	Z16	X17	Y17	Z17	X18	Y18	Z18	X19	Y19	Z19	X20	Y20	Z20	X21	Y21	Z21	X22	Y22	Z22	X23	Y23	Z23	X24	Y24	Z24	X25	Y25	Z25	X26	Y26	Z26	X27	Y27	Z27	X28	Y28	Z28	X29	Y29	Z29	X30	Y30	Z30	X31	Y31	Z31	X32	Y32	Z32	X33	Y33	Z33	X34	Y34	Z34	X35	Y35	Z35	X36	Y36	Z36	X37	Y37	Z37	X38	Y38	Z38	

45	0.440000	-144.760975	1012.404148	18.168970	55.698387	983.404485	150.084303	75.245841	976.519833	-84.471601	-52.769660	506.550439	204.633407	-49.201848	494.223746	94.844748	80.774807	738.907971	141.425455	31.430419	633.098633	91.200335	32.509728	625.248802	175.854926	-62.336467	512.745920	-159.242519	-77.508876	486.362316	-40.288535	85.908451	757.627831	-70.579854	36.258851	644.579818	-33.607745	50.110457	640.060002	-109.645986	-155.714231	103.285569	223.393192	-132.846946	119.415441	130.940013	-34.066699	329.288177	190.564561	-87.227966	224.425680	143.795494	-91.524216	226.215910	226.406129	-147.069653	96.635199	-152.862178	-125.437010	120.464066	-61.341121	-43.541494	367.378554	-125.864156	-82.219748	252.339579	-85.727201	-77.614644	254.918493	-166.696545	-226.142457	57.328020	179.859516	4.757430	64.536415	165.769648	-9.083990	58.485294	238.583188	-220.344327	54.989134	-105.015675	8.527932	60.920600	-83.133339	-15.781128	55.423394	-171.463135	8.133693	1394.467017	14.727869	-80.603534	1446.139895	204.577625	-76.406158	1440.544311	-178.925164	-136.253332	108.549632	-107.101650	-144.280589	111.350505	177.166603	-0.131012	906.176078	-55.831292	-14.244347	911.146823	113.518946	-69.922671	499.554118	-99.765527	-50.985754	500.387093	149.739078	
46	0.450000	-144.701978	1012.412056	18.201421	55.765478	983.392780	150.101780	75.296419	976.513072	-84.444861	-52.742350	506.543078	204.645766	-49.170550	494.222928	94.843975	80.819214	738.896330	141.441435	31.463365	633.091526	91.209222	32.547768	625.240079	175.868456	-62.314353	512.743004	-159.221156	-77.473861	486.357032	-40.284755	85.944690	757.614783	-70.555404	36.283204	644.566132	-33.587874	50.139722	640.051195	-109.627253	-155.717783	103.290169	223.392271	-132.843725	119.415501	130.937397	-34.052802	329.279884	190.566316	-87.396973	224.861717	144.078777	-91.515800	226.209862	226.406529	-147.067961	96.637999	-152.858703	-125.434317	120.464636	-61.337156	-43.528439	367.377340	-125.852133	-82.211435	252.339431	-85.718794	-77.606086	254.918838	-166.686437	-226.143493	57.331502	179.857266	4.762206	64.545128	165.764202	-9.082670	58.486261	238.583015	-220.343760	54.991891	-105.014588	8.529405	60.920790	-83.134771	-15.779676	55.423960	-171.462243	8.225618	1394.458871	14.765792	-80.498491	1446.126384	204.622287	-76.313798	1440.558304	-178.883389	-136.251139	108.551318	-107.097929	-144.280754	111.352835	177.164834	-0.083910	906.177708	-55.803465	-14.185377	911.144903	113.540749	-69.894107	499.550018	-99.752955	-50.956450	500.383003	149.744870	
47	0.460000	-144.642832	1012.418331	18.233938	55.829730	983.379509	150.124582	75.348323	976.506005	-84.413456	-52.715015	506.535136	204.659564	-49.139975	494.219857	94.844274	80.863368	738.884566	141.461005	31.497875	633.083885	91.220974	32.583394	625.230442	175.883379	-62.289754	512.739844	-159.197140	-77.440114	486.351304	-40.274823	85.984657	757.600989	-70.525997	36.312763	644.554768	-33.564456	50.171646	640.042268	-109.606306	-155.721706	103.294379	223.391287	-132.838795	119.415962	130.934402	-34.039137	329.271240	190.568998	-87.647529	225.611890	144.548479	-91.508175	226.202975	226.408070	-147.065786	96.641068	-152.855150	-125.431674	120.465235	-61.332862	-43.513504	367.375770	-125.838266	-82.200717	252.340039	-85.708268	-77.595752	254.918958	-166.675057	-226.145042	57.335438	179.854423	4.769062	64.559266	165.756534	-9.081491	58.486917	238.583037	-220.343371	54.994822	-105.013524	8.530617	60.920364	-83.136052	-15.778562	55.424605	-171.461218	8.317229	1394.449690	14.808010	-80.395269	1446.113709	204.670128	-76.215412	1440.565894	-178.840300	-136.248730	108.553152	-107.094006	-144.280250	111.355171	177.162845	-0.035667	906.178348	-55.772464	-14.128270	911.141081	113.566142	-69.864934	499.545574	-99.735981	-50.927495	500.377497	149.751919	
48	0.470000	-144.583032	1012.423114	18.266530	55.891167	983.364684	150.152760	75.401778	976.498634	-84.378000	-52.687969	506.526770	204.674549	-49.113628	494.211543	94.843223	80.906267	738.872292	141.483347	31.533640	633.075569	91.235673	32.616582	625.219873	175.899233	-62.262408	512.736381	-159.170661	-77.407478	486.345364	-40.259353	86.028652	757.586550	-70.492208	36.349871	644.547282	-33.537857	50.206405	640.033183	-109.583596	-155.725754	103.298019	223.390189	-132.832787	119.416548	130.931267	-34.025761	329.262563	190.572734	-87.964742	226.630438	145.176109	-91.500897	226.195504	226.410671	-147.063170	96.644439	-152.851438	-125.429047	120.465861	-61.328042	-43.496492	367.373789	-125.822467	-82.186737	252.341600	-85.695134	-77.583475	254.918925	-166.662325	-226.146862	57.339424	179.851081	4.777225	64.576710	165.747707	-9.080542	58.487093	238.583209	-220.343115	54.997900	-105.012287	8.531549	60.918694	-83.135682	-15.777865	55.425386	-171.460049	8.408360	1394.439510	14.854804	-80.294407	1446.102061	204.720932	-76.111147	1440.567409	-178.795697	-136.246108	108.555150	-107.089740	-144.279271	111.357283	177.160728	0.013910	906.177852	-55.738834	-14.072971	911.135217	113.595020	-69.834943	499.540873	-99.715007	-50.900799	500.369157	149.758886	
49	0.480000	-144.522088	1012.426668	18.299320	55.949920	983.348418	150.186197	75.456893	976.491001	-84.339118	-52.661307	506.518056	204.690469	-49.094568	494.195261	94.838451	80.947013	738.859174	141.507641	31.570291	633.066394	91.253334	32.647660	625.208418	175.915617	-62.232034	512.732588	-159.142035	-77.375620	486.339479	-40.239384	86.076763	757.571666	-70.454694	36.396629	644.545067	-33.508439	50.244152	640.023913	-109.559426	-155.729858	103.300965	223.388981	-132.826494	119.416946	130.928297	-34.012591	329.254038	190.577687	-88.310493	227.799112	145.888617	-91.493406	226.187578	226.414121	-147.060200	96.648145	-152.847531	-125.426444	120.466502	-61.322553	-43.477217	367.371373	-125.804678	-82.168948	252.344202	-85.679052	-77.569066	254.918812	-166.648161	-226.148698	57.342973	179.847441	4.785663	64.594808	165.739010	-9.079916	58.486685	238.583490	-220.342923	55.001108	-105.010709	8.532157	60.915503	-83.132784	-15.777615	55.426376	-171.458773	8.498994	1394.428438	14.906306	-80.196289	1446.091493	204.774411	-76.001330	1440.563520	-178.749438	-136.243322	108.557323	-107.085042	-144.278176	111.358955	177.158639	0.064917	906.176187	-55.703077	-14.019369	911.127330	113.627215	-69.803827	499.536033	-99.690710	-50.877938	500.356659	149.764460	
50	0.490000	-144.459636	1012.429281	18.332503	56.006168	983.330893	150.224597	75.513633	976.483178	-84.297377	-52.634721	506.508916	204.707069	-49.084482	494.169317	94.828395	80.985102	738.845018	141.533166	31.607654	633.056169	91.273869	32.677417	625.196150	175.932211	-62.198365	512.728472	-159.111679	-77.344100	486.333915	-40.216174	86.128864	757.556601	-70.414162	36.454508	644.549070	-33.476519	50.285011	640.014459	-109.533921	-155.734046	103.303159	223.387732	-132.820701	119.416863	130.925796	-33.999270	329.245624	190.583968	-88.620976	228.924085	146.566055	-91.485002	226.179153	226.418084	-147.056983	96.652221	-152.843431	-125.423905	120.467129	-61.316331	-43.455518	367.368534	-125.784882	-82.147282	252.347753	-85.659960	-77.552350	254.918695	-166.632520	-226.150310	57.345605	179.843783	4.793291	64.610883	165.731688	-9.079702	58.485650	238.583826	-220.342716	55.004448	-105.008679	8.532409	60.910895	-83.127204	-15.777786	55.427646	-171.457464	8.589258	1394.416627	14.962419	-80.101066	1446.081919	204.830219	-75.886495	1440.555176	-178.701487	-136.240444	108.559675	-107.079881	-144.277374	111.360011	177.156764	0.117334	906.173422	-55.665609	-13.967325	911.117567	113.662491	-69.771233	499.531193	-99.663926	-50.859601	500.339117	149.767732	
51	0.500000	-144.395529	1012.431159	18.366316	56.060096	983.312328	150.267492	75.571784	976.475252	-84.253216	-52.607363	506.499065	204.724077	-49.082820	494.133772	94.812997	81.020687	738.829840	141.559375	31.645990	633.044743	91.297065	32.707191	625.183162	175.948769	-62.161185	512.724084	-159.080056	-77.312450	486.328905	-40.190975	86.184628	757.541659	-70.371319	36.523906	644.559475	-33.442315	50.329053	640.004854	-109.507018	-155.738328	103.304588	223.386571	-132.816033	119.416082	130.924002	-33.985067	329.236997	190.591534	-88.809388	229.745926	147.047677	-91.474826	226.170009	226.422127	-147.053619	96.656707	-152.839175	-125.421477	120.467702	-61.309397	-43.431267	367.365317	-125.763109	-82.122219	252.351945	-85.638138	-77.533195	254.918640	-166.615414	-226.151502	57.346940	179.840440	4.799166	64.622702	165.726692	-9.079971	58.484003	238.584148	-220.342416	55.007943	-105.006166	8.532306	60.905270	-83.119407	-15.778306	55.429255	-171.456220	8.679384	1394.404254	15.022774	-80.008624	1446.073142	204.887966	-75.767388	1440.543538	-178.651914	-136.237548	108.562205	-107.074286	-144.277180	111.360335	177.155286	0.171020	906.169700	-55.626713	-13.916694	911.106166	113.700548	-69.736817	499.526495	-99.635516	-50.845091	500.316419	149.768537	
